<svg xmlns="http://www.w3.org/2000/svg" xmlns:xlink="http://www.w3.org/1999/xlink" width="1920" zoomAndPan="magnify" viewBox="0 0 1440 809.999993" height="1080" preserveAspectRatio="xMidYMid meet" version="1.0"><defs><clipPath id="b0f250ca43"><path d="M 621.921875 348 L 777 348 L 777 503.226562 L 621.921875 503.226562 Z M 621.921875 348 " clip-rule="nonzero"/></clipPath><clipPath id="03fc74115e"><path d="M 663 306.726562 L 818.421875 306.726562 L 818.421875 462 L 663 462 Z M 663 306.726562 " clip-rule="nonzero"/></clipPath><clipPath id="d5863cc02b"><path d="M 663 306.726562 L 741 306.726562 L 741 385 L 663 385 Z M 663 306.726562 " clip-rule="nonzero"/></clipPath></defs><g clip-path="url(#b0f250ca43)"><path fill="#53b9ff" d="M 652.519531 348.261719 L 622.160156 378.660156 L 668.980469 425.617188 L 621.921875 472.816406 L 652.1875 503.226562 L 699.339844 456.015625 L 746.238281 502.890625 L 776.597656 472.492188 Z M 652.519531 348.261719 " fill-opacity="1" fill-rule="nonzero"/></g><path fill="#119eff" d="M 729.78125 425.621094 L 699.339844 456.015625 L 746.238281 502.890625 L 776.597656 472.492188 Z M 729.78125 425.621094 " fill-opacity="1" fill-rule="nonzero"/><path fill="#000000" d="M 729.78125 425.621094 L 699.339844 456.015625 L 711.058594 467.667969 Z M 729.78125 425.621094 " fill-opacity="0.2" fill-rule="nonzero"/><g clip-path="url(#03fc74115e)"><path fill="#53b9ff" d="M 771.269531 384.238281 L 818.421875 337.027344 L 788.050781 306.726562 L 740.914062 353.839844 L 694.011719 306.964844 L 663.652344 337.359375 L 787.726562 461.59375 L 818.085938 431.195312 Z M 771.269531 384.238281 " fill-opacity="1" fill-rule="nonzero"/></g><g clip-path="url(#d5863cc02b)"><path fill="#119eff" d="M 710.472656 384.238281 L 740.914062 353.84375 L 694.011719 306.964844 L 663.652344 337.363281 Z M 710.472656 384.238281 " fill-opacity="1" fill-rule="nonzero"/></g><path fill="#000000" d="M 710.46875 384.238281 L 740.910156 353.839844 L 729.191406 342.183594 Z M 710.46875 384.238281 " fill-opacity="0.2" fill-rule="nonzero"/></svg>