<svg xmlns="http://www.w3.org/2000/svg" xmlns:xlink="http://www.w3.org/1999/xlink" width="500" zoomAndPan="magnify" viewBox="0 0 375 374.999991" height="500" preserveAspectRatio="xMidYMid meet" version="1.0"><defs><filter x="0%" y="0%" width="100%" height="100%" id="3345703527"><feColorMatrix values="0 0 0 0 1 0 0 0 0 1 0 0 0 0 1 0 0 0 1 0" color-interpolation-filters="sRGB"/></filter><g/><mask id="a5e6915cf2"><g filter="url(#3345703527)"><rect x="-37.5" width="450" fill="#000000" y="-37.499999" height="449.999989" fill-opacity="0.48"/></g></mask><clipPath id="33987e3004"><rect x="0" width="199" y="0" height="207"/></clipPath></defs><g mask="url(#a5e6915cf2)"><g transform="matrix(1, 0, 0, 1, 88, 84)"><g clip-path="url(#33987e3004)"><g fill="#ffffff" fill-opacity="1"><g transform="translate(0.987938, 155.333964)"><g><path d="M 35.59375 2.703125 C 30.082031 2.703125 24.472656 2.023438 18.765625 0.671875 C 13.066406 -0.671875 8.3125 -2.445312 4.5 -4.65625 L 5.25 -25.078125 L 6.75 -25.078125 L 11.40625 -15.3125 C 12.8125 -12.507812 14.316406 -10.03125 15.921875 -7.875 C 17.523438 -5.726562 19.726562 -4.054688 22.53125 -2.859375 C 24.53125 -1.847656 26.453125 -1.164062 28.296875 -0.8125 C 30.148438 -0.46875 32.234375 -0.296875 34.546875 -0.296875 C 40.648438 -0.296875 45.476562 -1.945312 49.03125 -5.25 C 52.582031 -8.5625 54.359375 -12.816406 54.359375 -18.015625 C 54.359375 -22.921875 53.15625 -26.75 50.75 -29.5 C 48.351562 -32.257812 44.5 -34.941406 39.1875 -37.546875 L 33.03125 -40.25 C 24.425781 -44.050781 17.695312 -48.425781 12.84375 -53.375 C 7.988281 -58.332031 5.5625 -64.921875 5.5625 -73.140625 C 5.5625 -79.046875 7.085938 -84.148438 10.140625 -88.453125 C 13.191406 -92.753906 17.441406 -96.054688 22.890625 -98.359375 C 28.347656 -100.660156 34.734375 -101.8125 42.046875 -101.8125 C 47.347656 -101.8125 52.378906 -101.109375 57.140625 -99.703125 C 61.898438 -98.304688 66.03125 -96.40625 69.53125 -94 L 68.625 -75.984375 L 67.125 -75.984375 L 60.96875 -87.25 C 59.269531 -90.75 57.566406 -93.222656 55.859375 -94.671875 C 54.160156 -96.128906 52.207031 -97.160156 50 -97.765625 C 48.707031 -98.160156 47.507812 -98.429688 46.40625 -98.578125 C 45.300781 -98.734375 43.898438 -98.8125 42.203125 -98.8125 C 37.097656 -98.8125 32.789062 -97.332031 29.28125 -94.375 C 25.78125 -91.425781 24.03125 -87.445312 24.03125 -82.4375 C 24.03125 -77.332031 25.378906 -73.253906 28.078125 -70.203125 C 30.785156 -67.148438 34.742188 -64.421875 39.953125 -62.015625 L 46.859375 -59.015625 C 56.460938 -54.804688 63.367188 -50.320312 67.578125 -45.5625 C 71.785156 -40.8125 73.890625 -34.6875 73.890625 -27.1875 C 73.890625 -18.375 70.554688 -11.1875 63.890625 -5.625 C 57.234375 -0.0703125 47.800781 2.703125 35.59375 2.703125 Z M 35.59375 2.703125 "/></g></g></g><g fill="#ffffff" fill-opacity="1"><g transform="translate(79.223383, 155.333964)"><g><path d="M 3 0 L 3 -1.5 L 6 -2.546875 C 9.40625 -3.648438 11.109375 -6.503906 11.109375 -11.109375 L 11.109375 -88 C 11.109375 -90 10.882812 -91.597656 10.4375 -92.796875 C 9.988281 -94.003906 8.8125 -95.007812 6.90625 -95.8125 L 3 -97.609375 L 3 -99.109375 L 31.984375 -99.109375 L 59.765625 -26.4375 L 85.890625 -99.109375 L 115.484375 -99.109375 L 115.484375 -97.609375 L 113.078125 -96.703125 C 111.171875 -96.003906 109.867188 -95.03125 109.171875 -93.78125 C 108.472656 -92.53125 108.125 -90.90625 108.125 -88.90625 L 108.125 -10.359375 C 108.125 -8.359375 108.375 -6.804688 108.875 -5.703125 C 109.375 -4.597656 110.578125 -3.648438 112.484375 -2.859375 L 115.484375 -1.5 L 115.484375 0 L 78.09375 0 L 78.09375 -1.5 L 81.25 -2.859375 C 83.144531 -3.648438 84.34375 -4.597656 84.84375 -5.703125 C 85.34375 -6.804688 85.59375 -8.359375 85.59375 -10.359375 L 85.59375 -44.15625 L 85.890625 -87.09375 L 54.515625 0 L 47 0 L 14.265625 -86.046875 L 14.71875 -48.65625 L 14.71875 -10.8125 C 14.71875 -8.613281 15.039062 -6.835938 15.6875 -5.484375 C 16.34375 -4.128906 17.617188 -3.148438 19.515625 -2.546875 L 22.828125 -1.5 L 22.828125 0 Z M 3 0 "/></g></g></g></g></g></g><g fill="#000000" fill-opacity="1"><g transform="translate(37.795651, 210.569151)"><g><path d="M 6.515625 -5.828125 L 5.421875 -5.859375 C 4.328125 -5.890625 3.128906 -5.976562 1.828125 -6.125 C 1.804688 -6.125 1.785156 -6.140625 1.765625 -6.171875 C 1.734375 -6.171875 1.703125 -6.1875 1.671875 -6.21875 C 1.648438 -6.25 1.648438 -6.316406 1.671875 -6.421875 C 1.773438 -6.828125 1.921875 -7.039062 2.109375 -7.0625 C 3.160156 -7.207031 4.195312 -7.285156 5.21875 -7.296875 L 5.84375 -7.328125 L 9.96875 -7.328125 C 10.195312 -7.328125 10.421875 -7.3125 10.640625 -7.28125 C 10.796875 -7.226562 10.816406 -7 10.703125 -6.59375 C 10.578125 -6.175781 10.429688 -5.945312 10.265625 -5.90625 C 10.179688 -5.882812 10.097656 -5.875 10.015625 -5.875 L 9.375 -5.875 C 8.46875 -5.84375 7.515625 -5.828125 6.515625 -5.828125 Z M 6.515625 -5.828125 "/></g></g></g><g fill="#000000" fill-opacity="1"><g transform="translate(53.873085, 210.569151)"><g/></g></g><g fill="#000000" fill-opacity="1"><g transform="translate(68.115357, 210.569151)"><g><path d="M 69.203125 -38.671875 C 69.441406 -38.472656 69.65625 -38.25 69.84375 -38 C 70.03125 -37.75 70.148438 -37.457031 70.203125 -37.125 C 70.265625 -36.75 70.128906 -36.460938 69.796875 -36.265625 C 69.597656 -36.171875 69.40625 -36.15625 69.21875 -36.21875 C 69.03125 -36.289062 68.898438 -36.4375 68.828125 -36.65625 C 68.609375 -37.238281 68.28125 -37.703125 67.84375 -38.046875 C 67.414062 -38.398438 66.945312 -38.703125 66.4375 -38.953125 C 65.3125 -39.546875 64.148438 -40.023438 62.953125 -40.390625 C 61.753906 -40.765625 60.550781 -41.09375 59.34375 -41.375 C 57.3125 -41.800781 54.609375 -42.078125 51.234375 -42.203125 C 47.867188 -42.335938 44.117188 -42.289062 39.984375 -42.0625 C 35.847656 -41.832031 31.613281 -41.390625 27.28125 -40.734375 C 22.945312 -40.078125 18.796875 -39.175781 14.828125 -38.03125 C 10.867188 -36.882812 7.390625 -35.453125 4.390625 -33.734375 C 1.398438 -32.023438 -0.828125 -30.007812 -2.296875 -27.6875 C -3.535156 -25.675781 -3.785156 -23.546875 -3.046875 -21.296875 C -2.503906 -19.765625 -1.734375 -18.367188 -0.734375 -17.109375 C 0.753906 -15.222656 2.40625 -13.492188 4.21875 -11.921875 C 5.75 -10.523438 7.289062 -9.132812 8.84375 -7.75 C 10.351562 -6.40625 11.867188 -5.046875 13.390625 -3.671875 C 15.078125 -2.117188 16.738281 -0.546875 18.375 1.046875 C 18.519531 1.191406 18.675781 1.335938 18.84375 1.484375 C 19.71875 2.304688 20.492188 3.21875 21.171875 4.21875 C 21.859375 5.363281 21.988281 6.25 21.5625 6.875 C 21.132812 7.507812 20.328125 7.9375 19.140625 8.15625 C 17.953125 8.382812 16.570312 8.453125 15 8.359375 C 13.425781 8.273438 11.84375 8.078125 10.25 7.765625 C 8.65625 7.460938 7.238281 7.097656 6 6.671875 C 4.769531 6.242188 3.898438 5.800781 3.390625 5.34375 C 2.367188 4.394531 2.300781 3.394531 3.1875 2.34375 C 4.144531 1.257812 5.3125 0.472656 6.6875 -0.015625 C 8.675781 -0.785156 10.691406 -0.847656 12.734375 -0.203125 C 13.117188 -0.0546875 13.492188 0.128906 13.859375 0.359375 C 13.890625 0.378906 13.921875 0.398438 13.953125 0.421875 C 14.046875 0.484375 14.109375 0.566406 14.140625 0.671875 C 14.179688 0.773438 14.164062 0.890625 14.09375 1.015625 C 13.9375 1.210938 13.738281 1.269531 13.5 1.1875 C 13.28125 1.113281 13.070312 1.015625 12.875 0.890625 C 11.46875 0.191406 10.015625 0.046875 8.515625 0.453125 C 7.023438 0.867188 5.769531 1.679688 4.75 2.890625 C 4.300781 3.484375 4.273438 4 4.671875 4.4375 C 5.078125 4.882812 5.691406 5.257812 6.515625 5.5625 C 7.335938 5.875 8.164062 6.113281 9 6.28125 C 9.84375 6.457031 10.46875 6.578125 10.875 6.640625 C 10.957031 6.640625 11.015625 6.648438 11.046875 6.671875 C 11.128906 6.671875 11.226562 6.679688 11.34375 6.703125 C 11.875 6.816406 12.597656 6.9375 13.515625 7.0625 C 14.429688 7.195312 15.375 7.285156 16.34375 7.328125 C 17.320312 7.378906 18.15625 7.316406 18.84375 7.140625 C 19.539062 6.960938 19.929688 6.617188 20.015625 6.109375 C 20.109375 5.597656 19.722656 4.84375 18.859375 3.84375 C 17.941406 2.78125 16.96875 1.75 15.9375 0.75 C 13.382812 -1.71875 10.765625 -4.113281 8.078125 -6.4375 C 7.109375 -7.3125 6.144531 -8.179688 5.1875 -9.046875 C 3.570312 -10.492188 1.988281 -11.972656 0.4375 -13.484375 C -1 -14.878906 -2.265625 -16.414062 -3.359375 -18.09375 C -4.148438 -19.300781 -4.703125 -20.609375 -5.015625 -22.015625 C -5.484375 -24.304688 -5.054688 -26.425781 -3.734375 -28.375 C -2.285156 -30.550781 -0.1875 -32.476562 2.5625 -34.15625 C 5.3125 -35.84375 8.5 -37.28125 12.125 -38.46875 C 15.75 -39.65625 19.609375 -40.613281 23.703125 -41.34375 C 27.804688 -42.082031 31.953125 -42.601562 36.140625 -42.90625 C 40.328125 -43.21875 44.335938 -43.320312 48.171875 -43.21875 C 52.015625 -43.125 55.492188 -42.835938 58.609375 -42.359375 C 61.722656 -41.878906 64.273438 -41.210938 66.265625 -40.359375 C 67.316406 -39.953125 68.296875 -39.390625 69.203125 -38.671875 Z M 69.203125 -38.671875 "/></g></g></g><g fill="#000000" fill-opacity="1"><g transform="translate(91.975457, 210.569151)"><g><path d="M 10.875 -6.25 C 10.71875 -6.101562 10.550781 -5.972656 10.375 -5.859375 C 9.800781 -5.492188 9.28125 -5.207031 8.8125 -5 C 8.351562 -4.800781 7.8125 -4.59375 7.1875 -4.375 C 6.257812 -4.101562 5.664062 -4.164062 5.40625 -4.5625 C 5.144531 -4.96875 5.101562 -5.53125 5.28125 -6.25 C 5.53125 -7.257812 5.675781 -8 5.71875 -8.46875 C 5.757812 -8.945312 5.601562 -9.113281 5.25 -8.96875 C 4.894531 -8.820312 4.253906 -8.332031 3.328125 -7.5 C 2.023438 -6.382812 0.914062 -5.109375 0 -3.671875 C -0.113281 -3.472656 -0.253906 -3.3125 -0.421875 -3.1875 C -0.597656 -3.0625 -0.8125 -3 -1.0625 -3 C -1.300781 -3 -1.472656 -3.0625 -1.578125 -3.1875 C -1.679688 -3.3125 -1.6875 -3.484375 -1.59375 -3.703125 C -1.0625 -4.859375 -0.519531 -6.007812 0.03125 -7.15625 C 0.976562 -9.132812 1.910156 -11.109375 2.828125 -13.078125 C 3.515625 -14.546875 4.191406 -16.019531 4.859375 -17.5 C 5.273438 -18.363281 5.675781 -19.226562 6.0625 -20.09375 C 6.101562 -20.164062 6.144531 -20.242188 6.1875 -20.328125 C 6.226562 -20.421875 6.269531 -20.515625 6.3125 -20.609375 C 6.363281 -20.710938 6.421875 -20.820312 6.484375 -20.9375 C 6.535156 -21.039062 6.632812 -21.125 6.78125 -21.1875 C 6.925781 -21.25 7.070312 -21.285156 7.21875 -21.296875 C 7.375 -21.316406 7.488281 -21.3125 7.5625 -21.28125 C 7.6875 -21.195312 7.753906 -21.109375 7.765625 -21.015625 C 7.773438 -20.929688 7.757812 -20.835938 7.71875 -20.734375 C 7.695312 -20.722656 7.6875 -20.691406 7.6875 -20.640625 C 7.507812 -20.117188 7.320312 -19.613281 7.125 -19.125 C 5.988281 -16.382812 4.753906 -13.691406 3.421875 -11.046875 C 3.316406 -10.859375 3.195312 -10.640625 3.0625 -10.390625 C 2.863281 -10.035156 2.679688 -9.6875 2.515625 -9.34375 C 2.347656 -9 2.289062 -8.769531 2.34375 -8.65625 C 2.40625 -8.539062 2.671875 -8.628906 3.140625 -8.921875 C 3.285156 -9.015625 3.414062 -9.113281 3.53125 -9.21875 C 3.90625 -9.46875 4.28125 -9.703125 4.65625 -9.921875 C 4.96875 -10.140625 5.320312 -10.257812 5.71875 -10.28125 C 6.65625 -10.34375 7.179688 -9.914062 7.296875 -9 C 7.347656 -8.632812 7.335938 -8.269531 7.265625 -7.90625 C 7.191406 -7.550781 7.101562 -7.203125 7 -6.859375 C 6.988281 -6.765625 6.972656 -6.664062 6.953125 -6.5625 C 6.796875 -5.957031 6.835938 -5.609375 7.078125 -5.515625 C 7.328125 -5.429688 7.671875 -5.484375 8.109375 -5.671875 C 8.554688 -5.859375 9.003906 -6.082031 9.453125 -6.34375 C 9.765625 -6.507812 10.039062 -6.648438 10.28125 -6.765625 C 10.519531 -6.878906 10.695312 -6.925781 10.8125 -6.90625 C 11.03125 -6.875 11.128906 -6.785156 11.109375 -6.640625 C 11.085938 -6.503906 11.007812 -6.375 10.875 -6.25 Z M 10.875 -6.25 "/></g></g></g><g fill="#000000" fill-opacity="1"><g transform="translate(106.311505, 210.569151)"><g><path d="M 9.71875 -6.8125 C 9.925781 -6.695312 9.941406 -6.410156 9.765625 -5.953125 C 9.503906 -5.609375 9.226562 -5.289062 8.9375 -5 C 8.644531 -4.707031 8.320312 -4.441406 7.96875 -4.203125 C 7.945312 -4.203125 7.9375 -4.195312 7.9375 -4.1875 C 7.695312 -4.019531 7.445312 -3.878906 7.1875 -3.765625 C 5.0625 -2.992188 3.972656 -3.445312 3.921875 -5.125 C 3.054688 -4.375 2.476562 -3.910156 2.1875 -3.734375 C 1.476562 -3.316406 0.710938 -3.128906 -0.109375 -3.171875 C -0.710938 -3.210938 -1.125 -3.398438 -1.34375 -3.734375 C -1.5625 -4.066406 -1.539062 -4.519531 -1.28125 -5.09375 C -0.894531 -5.988281 -0.335938 -6.789062 0.390625 -7.5 C 1.234375 -8.289062 2.175781 -8.921875 3.21875 -9.390625 C 3.769531 -9.671875 4.347656 -9.78125 4.953125 -9.71875 C 5.566406 -9.675781 5.9375 -9.332031 6.0625 -8.6875 C 6.113281 -8.488281 6.0625 -8.3125 5.90625 -8.15625 C 5.707031 -7.976562 5.476562 -7.9375 5.21875 -8.03125 C 5.207031 -8.03125 5.1875 -8.035156 5.15625 -8.046875 C 5.125 -8.054688 5.097656 -8.070312 5.078125 -8.09375 C 4.816406 -8.445312 4.554688 -8.59375 4.296875 -8.53125 C 4.035156 -8.476562 3.753906 -8.363281 3.453125 -8.1875 C 2.078125 -7.382812 1.054688 -6.265625 0.390625 -4.828125 C 0.347656 -4.765625 0.320312 -4.691406 0.3125 -4.609375 C 0.3125 -4.535156 0.335938 -4.476562 0.390625 -4.4375 C 0.546875 -4.382812 0.722656 -4.394531 0.921875 -4.46875 C 1.117188 -4.539062 1.316406 -4.648438 1.515625 -4.796875 C 1.710938 -4.953125 1.878906 -5.078125 2.015625 -5.171875 C 2.023438 -5.203125 2.03125 -5.21875 2.03125 -5.21875 C 2.6875 -5.757812 3.328125 -6.316406 3.953125 -6.890625 C 4.234375 -7.179688 4.578125 -7.34375 4.984375 -7.375 C 5.578125 -7.375 5.820312 -7.113281 5.71875 -6.59375 C 5.664062 -6.394531 5.609375 -6.195312 5.546875 -6 C 5.316406 -5.15625 5.304688 -4.65625 5.515625 -4.5 C 5.734375 -4.351562 6.0625 -4.351562 6.5 -4.5 C 6.945312 -4.65625 7.390625 -4.9375 7.828125 -5.34375 C 8.273438 -5.757812 8.648438 -6.140625 8.953125 -6.484375 C 9.253906 -6.828125 9.507812 -6.9375 9.71875 -6.8125 Z M 9.71875 -6.8125 "/></g></g></g><g fill="#000000" fill-opacity="1"><g transform="translate(119.308021, 210.569151)"><g><path d="M 5.328125 -5.640625 C 4.847656 -5.078125 4.28125 -4.554688 3.625 -4.078125 C 2.976562 -3.609375 2.242188 -3.289062 1.421875 -3.125 C 0.597656 -2.957031 -0.0351562 -3.015625 -0.484375 -3.296875 C -0.941406 -3.585938 -1.035156 -4.226562 -0.765625 -5.21875 C -0.410156 -6.226562 0.078125 -7.195312 0.703125 -8.125 C 0.847656 -8.3125 1.054688 -8.445312 1.328125 -8.53125 C 1.523438 -8.570312 1.695312 -8.535156 1.84375 -8.421875 C 1.988281 -8.316406 2.046875 -8.179688 2.015625 -8.015625 C 1.878906 -7.691406 1.726562 -7.367188 1.5625 -7.046875 C 1.40625 -6.722656 1.300781 -6.515625 1.25 -6.421875 C 0.9375 -5.847656 0.71875 -5.25 0.59375 -4.625 C 0.59375 -4.269531 1.066406 -4.25 2.015625 -4.5625 C 2.972656 -4.875 3.898438 -5.445312 4.796875 -6.28125 C 5.703125 -7.113281 6.132812 -7.359375 6.09375 -7.015625 C 6.0625 -6.671875 5.804688 -6.210938 5.328125 -5.640625 Z M 2.984375 -10.125 C 2.941406 -10.09375 2.847656 -10.050781 2.703125 -10 C 2.566406 -9.945312 2.421875 -9.910156 2.265625 -9.890625 C 2.109375 -9.867188 1.984375 -9.894531 1.890625 -9.96875 C 1.804688 -10.039062 1.804688 -10.179688 1.890625 -10.390625 C 2.035156 -10.765625 2.1875 -11.09375 2.34375 -11.375 C 2.5 -11.65625 2.703125 -11.96875 2.953125 -12.3125 C 3.109375 -12.46875 3.28125 -12.550781 3.46875 -12.5625 C 3.65625 -12.570312 3.8125 -12.519531 3.9375 -12.40625 C 4.0625 -12.300781 4.097656 -12.148438 4.046875 -11.953125 C 3.847656 -11.242188 3.492188 -10.632812 2.984375 -10.125 Z M 2.984375 -10.125 "/></g></g></g><g fill="#000000" fill-opacity="1"><g transform="translate(128.647613, 210.569151)"><g><path d="M 6.421875 -8.21875 C 6.347656 -7.601562 6.0625 -7.203125 5.5625 -7.015625 C 5.0625 -6.828125 4.894531 -7.070312 5.0625 -7.75 C 5.238281 -8.4375 4.929688 -8.609375 4.140625 -8.265625 C 3.359375 -7.929688 2.710938 -7.507812 2.203125 -7 C 1.421875 -6.195312 0.726562 -5.332031 0.125 -4.40625 C 0.0625 -4.320312 0.0078125 -4.253906 -0.03125 -4.203125 C -0.207031 -3.941406 -0.382812 -3.695312 -0.5625 -3.46875 C -0.675781 -3.3125 -0.8125 -3.210938 -0.96875 -3.171875 C -1.125 -3.128906 -1.285156 -3.117188 -1.453125 -3.140625 C -1.597656 -3.160156 -1.710938 -3.21875 -1.796875 -3.3125 C -1.878906 -3.414062 -1.890625 -3.535156 -1.828125 -3.671875 C -1.722656 -3.910156 -1.601562 -4.15625 -1.46875 -4.40625 C -0.664062 -5.894531 0.148438 -7.390625 0.984375 -8.890625 C 0.992188 -8.910156 1 -8.929688 1 -8.953125 C 1.113281 -9.179688 1.253906 -9.394531 1.421875 -9.59375 C 1.597656 -9.789062 1.800781 -9.867188 2.03125 -9.828125 C 2.269531 -9.796875 2.425781 -9.660156 2.5 -9.421875 C 2.601562 -9.109375 2.6875 -8.929688 2.75 -8.890625 C 2.820312 -8.847656 2.984375 -8.875 3.234375 -8.96875 C 3.773438 -9.164062 4.300781 -9.304688 4.8125 -9.390625 C 5.320312 -9.472656 5.738281 -9.453125 6.0625 -9.328125 C 6.382812 -9.210938 6.503906 -8.84375 6.421875 -8.21875 Z M 6.421875 -8.21875 "/></g></g></g><g fill="#000000" fill-opacity="1"><g transform="translate(139.460688, 210.569151)"><g><path d="M 9.71875 -6.8125 C 9.925781 -6.695312 9.941406 -6.410156 9.765625 -5.953125 C 9.503906 -5.609375 9.226562 -5.289062 8.9375 -5 C 8.644531 -4.707031 8.320312 -4.441406 7.96875 -4.203125 C 7.945312 -4.203125 7.9375 -4.195312 7.9375 -4.1875 C 7.695312 -4.019531 7.445312 -3.878906 7.1875 -3.765625 C 5.0625 -2.992188 3.972656 -3.445312 3.921875 -5.125 C 3.054688 -4.375 2.476562 -3.910156 2.1875 -3.734375 C 1.476562 -3.316406 0.710938 -3.128906 -0.109375 -3.171875 C -0.710938 -3.210938 -1.125 -3.398438 -1.34375 -3.734375 C -1.5625 -4.066406 -1.539062 -4.519531 -1.28125 -5.09375 C -0.894531 -5.988281 -0.335938 -6.789062 0.390625 -7.5 C 1.234375 -8.289062 2.175781 -8.921875 3.21875 -9.390625 C 3.769531 -9.671875 4.347656 -9.78125 4.953125 -9.71875 C 5.566406 -9.675781 5.9375 -9.332031 6.0625 -8.6875 C 6.113281 -8.488281 6.0625 -8.3125 5.90625 -8.15625 C 5.707031 -7.976562 5.476562 -7.9375 5.21875 -8.03125 C 5.207031 -8.03125 5.1875 -8.035156 5.15625 -8.046875 C 5.125 -8.054688 5.097656 -8.070312 5.078125 -8.09375 C 4.816406 -8.445312 4.554688 -8.59375 4.296875 -8.53125 C 4.035156 -8.476562 3.753906 -8.363281 3.453125 -8.1875 C 2.078125 -7.382812 1.054688 -6.265625 0.390625 -4.828125 C 0.347656 -4.765625 0.320312 -4.691406 0.3125 -4.609375 C 0.3125 -4.535156 0.335938 -4.476562 0.390625 -4.4375 C 0.546875 -4.382812 0.722656 -4.394531 0.921875 -4.46875 C 1.117188 -4.539062 1.316406 -4.648438 1.515625 -4.796875 C 1.710938 -4.953125 1.878906 -5.078125 2.015625 -5.171875 C 2.023438 -5.203125 2.03125 -5.21875 2.03125 -5.21875 C 2.6875 -5.757812 3.328125 -6.316406 3.953125 -6.890625 C 4.234375 -7.179688 4.578125 -7.34375 4.984375 -7.375 C 5.578125 -7.375 5.820312 -7.113281 5.71875 -6.59375 C 5.664062 -6.394531 5.609375 -6.195312 5.546875 -6 C 5.316406 -5.15625 5.304688 -4.65625 5.515625 -4.5 C 5.734375 -4.351562 6.0625 -4.351562 6.5 -4.5 C 6.945312 -4.65625 7.390625 -4.9375 7.828125 -5.34375 C 8.273438 -5.757812 8.648438 -6.140625 8.953125 -6.484375 C 9.253906 -6.828125 9.507812 -6.9375 9.71875 -6.8125 Z M 9.71875 -6.8125 "/></g></g></g><g fill="#000000" fill-opacity="1"><g transform="translate(152.457204, 210.569151)"><g/></g></g><g fill="#000000" fill-opacity="1"><g transform="translate(166.699479, 210.569151)"><g><path d="M 58.796875 -32.328125 C 58.734375 -32.171875 58.671875 -32.007812 58.609375 -31.84375 C 57.984375 -30.21875 57.3125 -28.617188 56.59375 -27.046875 C 52.851562 -19.285156 48.84375 -11.78125 44.5625 -4.53125 C 43.164062 -2.1875 41.738281 0.113281 40.28125 2.375 C 38.832031 4.632812 37.367188 6.882812 35.890625 9.125 C 35.546875 9.644531 35.191406 10.171875 34.828125 10.703125 C 34.816406 10.742188 34.800781 10.773438 34.78125 10.796875 C 34.695312 10.960938 34.601562 11.097656 34.5 11.203125 C 34.394531 11.304688 34.25 11.359375 34.0625 11.359375 C 33.988281 11.359375 33.90625 11.335938 33.8125 11.296875 C 33.726562 11.253906 33.65625 11.203125 33.59375 11.140625 C 33.550781 11.085938 33.519531 11 33.5 10.875 C 33.488281 10.757812 33.5 10.664062 33.53125 10.59375 C 33.769531 10.070312 34.039062 9.582031 34.34375 9.125 C 35 8.039062 35.660156 6.957031 36.328125 5.875 C 37.585938 3.863281 38.828125 1.851562 40.046875 -0.15625 C 42.742188 -4.65625 45.316406 -9.25 47.765625 -13.9375 C 50.222656 -18.632812 52.625 -23.375 54.96875 -28.15625 C 55.90625 -30.007812 56.675781 -31.988281 57.28125 -34.09375 C 57.40625 -34.457031 57.5 -34.835938 57.5625 -35.234375 C 57.632812 -35.628906 57.671875 -36.035156 57.671875 -36.453125 C 57.609375 -37.359375 57.222656 -37.75 56.515625 -37.625 C 55.890625 -37.5 55.300781 -37.304688 54.75 -37.046875 C 53.4375 -36.410156 52.144531 -35.707031 50.875 -34.9375 C 44.007812 -30.78125 37.757812 -25.613281 32.125 -19.4375 C 32.039062 -19.34375 31.953125 -19.242188 31.859375 -19.140625 C 29.910156 -17.023438 27.976562 -14.890625 26.0625 -12.734375 C 24.144531 -10.585938 22.285156 -8.375 20.484375 -6.09375 C 20.109375 -5.625 19.71875 -5.179688 19.3125 -4.765625 C 18.875 -4.316406 18.347656 -4.140625 17.734375 -4.234375 C 17.472656 -4.265625 17.257812 -4.390625 17.09375 -4.609375 C 16.9375 -4.828125 16.875 -5.085938 16.90625 -5.390625 C 17.03125 -6.191406 17.207031 -6.96875 17.4375 -7.71875 C 18.164062 -10.09375 18.9375 -12.4375 19.75 -14.75 C 19.863281 -15.101562 19.96875 -15.445312 20.0625 -15.78125 C 20.28125 -16.644531 20.585938 -17.445312 20.984375 -18.1875 C 20.984375 -18.195312 20.972656 -18.203125 20.953125 -18.203125 C 20.859375 -18.253906 20.757812 -18.296875 20.65625 -18.328125 C 20.5625 -18.359375 20.460938 -18.328125 20.359375 -18.234375 C 20.003906 -17.835938 19.660156 -17.425781 19.328125 -17 C 16.617188 -13.320312 13.929688 -9.609375 11.265625 -5.859375 C 8.609375 -2.117188 6.007812 1.679688 3.46875 5.546875 C 3.25 5.921875 3.007812 6.222656 2.75 6.453125 C 2.488281 6.691406 2.140625 6.773438 1.703125 6.703125 C 1.503906 6.648438 1.347656 6.53125 1.234375 6.34375 C 1.128906 6.15625 1.109375 5.96875 1.171875 5.78125 C 1.410156 5.257812 1.664062 4.757812 1.9375 4.28125 C 2.726562 2.925781 3.507812 1.570312 4.28125 0.21875 C 5.820312 -2.46875 7.351562 -5.171875 8.875 -7.890625 C 11.226562 -12.054688 13.328125 -16.4375 15.171875 -21.03125 C 15.898438 -22.800781 16.492188 -24.660156 16.953125 -26.609375 C 17.203125 -27.640625 17.304688 -28.71875 17.265625 -29.84375 C 17.148438 -31.65625 16.550781 -32.945312 15.46875 -33.71875 C 14.394531 -34.5 12.976562 -34.867188 11.21875 -34.828125 C 9.457031 -34.785156 7.503906 -34.425781 5.359375 -33.75 C 3.210938 -33.070312 1.015625 -32.171875 -1.234375 -31.046875 C -3.484375 -29.929688 -5.648438 -28.695312 -7.734375 -27.34375 C -9.828125 -26 -11.6875 -24.632812 -13.3125 -23.25 C -14.945312 -21.875 -16.222656 -20.578125 -17.140625 -19.359375 C -18.085938 -18.015625 -18.898438 -16.539062 -19.578125 -14.9375 C -19.910156 -14.164062 -20.101562 -13.332031 -20.15625 -12.4375 C -20.175781 -12.257812 -20.265625 -12.125 -20.421875 -12.03125 C -20.585938 -11.9375 -20.769531 -11.910156 -20.96875 -11.953125 C -21.28125 -12.046875 -21.476562 -12.289062 -21.5625 -12.6875 C -21.613281 -13.207031 -21.570312 -13.679688 -21.4375 -14.109375 C -21.144531 -15.191406 -20.75 -16.210938 -20.25 -17.171875 C -19.351562 -18.859375 -17.984375 -20.582031 -16.140625 -22.34375 C -14.304688 -24.101562 -12.164062 -25.789062 -9.71875 -27.40625 C -7.269531 -29.019531 -4.710938 -30.457031 -2.046875 -31.71875 C 0.609375 -32.976562 3.207031 -33.957031 5.75 -34.65625 C 8.300781 -35.363281 10.597656 -35.679688 12.640625 -35.609375 C 14.679688 -35.535156 16.289062 -34.972656 17.46875 -33.921875 C 18.644531 -32.878906 19.21875 -31.226562 19.1875 -28.96875 C 19.125 -27.507812 18.894531 -26.125 18.5 -24.8125 C 17.925781 -22.882812 17.265625 -21.019531 16.515625 -19.21875 C 15.773438 -17.414062 14.984375 -15.65625 14.140625 -13.9375 C 13.890625 -13.394531 13.835938 -13.128906 13.984375 -13.140625 C 14.128906 -13.160156 14.347656 -13.367188 14.640625 -13.765625 C 15.703125 -15.171875 16.765625 -16.5625 17.828125 -17.9375 C 18.554688 -18.851562 19.296875 -19.753906 20.046875 -20.640625 C 20.140625 -20.765625 20.238281 -20.882812 20.34375 -21 C 20.769531 -21.53125 21.285156 -21.882812 21.890625 -22.0625 C 22.347656 -22.164062 22.734375 -22.0625 23.046875 -21.75 C 23.359375 -21.445312 23.460938 -20.992188 23.359375 -20.390625 C 23.347656 -20.328125 23.332031 -20.265625 23.3125 -20.203125 C 23.144531 -19.421875 22.957031 -18.65625 22.75 -17.90625 C 22.175781 -16.09375 21.585938 -14.296875 20.984375 -12.515625 C 20.679688 -11.597656 20.382812 -10.664062 20.09375 -9.71875 C 20.03125 -9.582031 19.941406 -9.332031 19.828125 -8.96875 C 19.710938 -8.65625 19.597656 -8.347656 19.484375 -8.046875 C 19.378906 -7.742188 19.296875 -7.515625 19.234375 -7.359375 C 19.316406 -7.421875 20.046875 -8.238281 21.421875 -9.8125 C 23.285156 -11.945312 25.492188 -14.453125 28.046875 -17.328125 C 30.609375 -20.210938 32.613281 -22.410156 34.0625 -23.921875 C 36.757812 -26.628906 39.59375 -29.09375 42.5625 -31.3125 C 45.539062 -33.53125 48.628906 -35.539062 51.828125 -37.34375 C 52.617188 -37.75 53.429688 -38.117188 54.265625 -38.453125 C 54.441406 -38.515625 54.613281 -38.585938 54.78125 -38.671875 C 55.5625 -38.984375 56.394531 -39.097656 57.28125 -39.015625 C 58.976562 -38.847656 59.757812 -37.773438 59.625 -35.796875 C 59.519531 -34.566406 59.242188 -33.410156 58.796875 -32.328125 Z M 20.890625 -18.28125 C 20.929688 -18.25 20.960938 -18.222656 20.984375 -18.203125 C 20.984375 -18.203125 20.984375 -18.195312 20.984375 -18.1875 C 20.992188 -18.1875 21 -18.191406 21 -18.203125 C 20.96875 -18.222656 20.929688 -18.25 20.890625 -18.28125 Z M 20.890625 -18.28125 "/></g></g></g><g fill="#000000" fill-opacity="1"><g transform="translate(221.301823, 210.569151)"><g><path d="M 5.328125 -5.640625 C 4.847656 -5.078125 4.28125 -4.554688 3.625 -4.078125 C 2.976562 -3.609375 2.242188 -3.289062 1.421875 -3.125 C 0.597656 -2.957031 -0.0351562 -3.015625 -0.484375 -3.296875 C -0.941406 -3.585938 -1.035156 -4.226562 -0.765625 -5.21875 C -0.410156 -6.226562 0.078125 -7.195312 0.703125 -8.125 C 0.847656 -8.3125 1.054688 -8.445312 1.328125 -8.53125 C 1.523438 -8.570312 1.695312 -8.535156 1.84375 -8.421875 C 1.988281 -8.316406 2.046875 -8.179688 2.015625 -8.015625 C 1.878906 -7.691406 1.726562 -7.367188 1.5625 -7.046875 C 1.40625 -6.722656 1.300781 -6.515625 1.25 -6.421875 C 0.9375 -5.847656 0.71875 -5.25 0.59375 -4.625 C 0.59375 -4.269531 1.066406 -4.25 2.015625 -4.5625 C 2.972656 -4.875 3.898438 -5.445312 4.796875 -6.28125 C 5.703125 -7.113281 6.132812 -7.359375 6.09375 -7.015625 C 6.0625 -6.671875 5.804688 -6.210938 5.328125 -5.640625 Z M 2.984375 -10.125 C 2.941406 -10.09375 2.847656 -10.050781 2.703125 -10 C 2.566406 -9.945312 2.421875 -9.910156 2.265625 -9.890625 C 2.109375 -9.867188 1.984375 -9.894531 1.890625 -9.96875 C 1.804688 -10.039062 1.804688 -10.179688 1.890625 -10.390625 C 2.035156 -10.765625 2.1875 -11.09375 2.34375 -11.375 C 2.5 -11.65625 2.703125 -11.96875 2.953125 -12.3125 C 3.109375 -12.46875 3.28125 -12.550781 3.46875 -12.5625 C 3.65625 -12.570312 3.8125 -12.519531 3.9375 -12.40625 C 4.0625 -12.300781 4.097656 -12.148438 4.046875 -11.953125 C 3.847656 -11.242188 3.492188 -10.632812 2.984375 -10.125 Z M 2.984375 -10.125 "/></g></g></g><g fill="#000000" fill-opacity="1"><g transform="translate(230.641403, 210.569151)"><g><path d="M 9.65625 -6.984375 C 9.695312 -6.984375 9.75 -6.96875 9.8125 -6.9375 C 9.875 -6.914062 9.921875 -6.890625 9.953125 -6.859375 C 10.078125 -6.742188 10.09375 -6.601562 10 -6.4375 C 9.875 -6.3125 9.75 -6.195312 9.625 -6.09375 C 8.9375 -5.457031 8.175781 -4.925781 7.34375 -4.5 C 6.019531 -3.832031 4.5625 -3.488281 2.96875 -3.46875 C 2.382812 -3.445312 1.78125 -3.546875 1.15625 -3.765625 C 0.0078125 -4.210938 -0.453125 -5.039062 -0.234375 -6.25 C 0.015625 -7.363281 0.640625 -8.285156 1.640625 -9.015625 C 2.640625 -9.753906 3.710938 -10.078125 4.859375 -9.984375 C 5.078125 -9.941406 5.289062 -9.890625 5.5 -9.828125 C 5.695312 -9.753906 5.84375 -9.640625 5.9375 -9.484375 C 6.039062 -9.328125 6.050781 -9.195312 5.96875 -9.09375 C 5.757812 -8.863281 5.515625 -8.804688 5.234375 -8.921875 C 4.828125 -9.097656 4.453125 -9.144531 4.109375 -9.0625 C 3.765625 -8.988281 3.414062 -8.800781 3.0625 -8.5 C 2.726562 -8.25 2.363281 -7.875 1.96875 -7.375 C 1.570312 -6.882812 1.320312 -6.390625 1.21875 -5.890625 C 1.113281 -5.390625 1.335938 -4.984375 1.890625 -4.671875 C 2.515625 -4.398438 3.15625 -4.332031 3.8125 -4.46875 C 5.4375 -4.800781 6.941406 -5.421875 8.328125 -6.328125 C 8.453125 -6.390625 8.566406 -6.457031 8.671875 -6.53125 C 8.816406 -6.65625 8.96875 -6.753906 9.125 -6.828125 C 9.28125 -6.898438 9.457031 -6.953125 9.65625 -6.984375 Z M 9.65625 -6.984375 "/></g></g></g><g fill="#000000" fill-opacity="1"><g transform="translate(243.691489, 210.569151)"><g><path d="M 2.125 -3.171875 L 2.09375 -3.171875 C 0.789062 -3.191406 -0.0625 -3.476562 -0.46875 -4.03125 C -0.875 -4.59375 -0.859375 -5.335938 -0.421875 -6.265625 C -0.046875 -6.972656 0.425781 -7.59375 1 -8.125 C 1.195312 -8.300781 1.398438 -8.441406 1.609375 -8.546875 C 1.816406 -8.648438 2.046875 -8.703125 2.296875 -8.703125 C 2.453125 -8.734375 2.628906 -8.707031 2.828125 -8.625 C 2.890625 -8.601562 2.953125 -8.582031 3.015625 -8.5625 C 3.160156 -8.582031 3.304688 -8.628906 3.453125 -8.703125 C 3.492188 -8.734375 3.546875 -8.757812 3.609375 -8.78125 C 3.898438 -8.894531 4.210938 -8.941406 4.546875 -8.921875 C 4.679688 -8.921875 4.816406 -8.921875 4.953125 -8.921875 C 5.484375 -8.835938 5.878906 -8.613281 6.140625 -8.25 C 6.410156 -7.894531 6.507812 -7.457031 6.4375 -6.9375 C 6.382812 -6.625 6.285156 -6.332031 6.140625 -6.0625 C 5.109375 -4.21875 3.796875 -3.253906 2.203125 -3.171875 Z M 4.25 -7.96875 C 3.539062 -8 2.910156 -7.796875 2.359375 -7.359375 C 1.816406 -6.929688 1.410156 -6.4375 1.140625 -5.875 C 0.867188 -5.3125 0.789062 -4.847656 0.90625 -4.484375 C 1.03125 -4.117188 1.40625 -4.019531 2.03125 -4.1875 C 2.738281 -4.394531 3.363281 -4.789062 3.90625 -5.375 C 4.445312 -5.96875 4.773438 -6.53125 4.890625 -7.0625 C 5.015625 -7.59375 4.800781 -7.894531 4.25 -7.96875 Z M 4.25 -7.96875 "/></g></g></g><g fill="#000000" fill-opacity="1"><g transform="translate(254.919813, 210.569151)"><g><path d="M 14 -6.71875 C 14.3125 -6.90625 14.554688 -6.953125 14.734375 -6.859375 C 14.910156 -6.765625 14.84375 -6.488281 14.53125 -6.03125 C 14.144531 -5.5 13.441406 -4.929688 12.421875 -4.328125 C 11.410156 -3.734375 10.515625 -3.472656 9.734375 -3.546875 C 8.960938 -3.628906 8.738281 -4.207031 9.0625 -5.28125 C 9.382812 -6.351562 9.554688 -6.953125 9.578125 -7.078125 C 9.609375 -7.210938 9.585938 -7.285156 9.515625 -7.296875 C 9.441406 -7.316406 9.265625 -7.226562 8.984375 -7.03125 C 8.179688 -6.476562 7.394531 -5.898438 6.625 -5.296875 C 6.300781 -5.046875 5.976562 -4.78125 5.65625 -4.5 C 5.457031 -4.320312 5.25 -4.144531 5.03125 -3.96875 C 5.03125 -3.96875 5.023438 -3.957031 5.015625 -3.9375 C 4.773438 -3.707031 4.488281 -3.550781 4.15625 -3.46875 C 4 -3.425781 3.835938 -3.410156 3.671875 -3.421875 C 3.503906 -3.429688 3.359375 -3.5 3.234375 -3.625 C 3.109375 -3.75 3.0625 -3.882812 3.09375 -4.03125 C 3.125 -4.1875 3.234375 -4.410156 3.421875 -4.703125 C 3.617188 -4.992188 3.828125 -5.316406 4.046875 -5.671875 C 4.273438 -6.023438 4.398438 -6.238281 4.421875 -6.3125 C 4.453125 -6.394531 4.441406 -6.476562 4.390625 -6.5625 C 4.328125 -6.644531 4.257812 -6.671875 4.1875 -6.640625 C 4.113281 -6.609375 3.828125 -6.414062 3.328125 -6.0625 C 2.835938 -5.707031 2.171875 -5.210938 1.328125 -4.578125 C 0.929688 -4.285156 0.546875 -3.984375 0.171875 -3.671875 C 0.078125 -3.578125 -0.0234375 -3.488281 -0.140625 -3.40625 C -0.421875 -3.164062 -0.726562 -3.039062 -1.0625 -3.03125 C -1.300781 -3.007812 -1.476562 -3.0625 -1.59375 -3.1875 C -1.707031 -3.3125 -1.722656 -3.484375 -1.640625 -3.703125 C -1.585938 -3.859375 -1.523438 -4.003906 -1.453125 -4.140625 C -1.398438 -4.203125 -1.367188 -4.265625 -1.359375 -4.328125 C -0.648438 -5.753906 0.046875 -7.1875 0.734375 -8.625 C 0.753906 -8.664062 0.773438 -8.71875 0.796875 -8.78125 C 0.867188 -8.925781 0.945312 -9.070312 1.03125 -9.21875 C 1.25 -9.445312 1.503906 -9.519531 1.796875 -9.4375 C 2.128906 -9.34375 2.257812 -9.148438 2.1875 -8.859375 C 2.019531 -8.410156 1.863281 -7.96875 1.71875 -7.53125 C 1.632812 -7.332031 1.550781 -7.132812 1.46875 -6.9375 C 1.332031 -6.59375 1.289062 -6.367188 1.34375 -6.265625 C 1.394531 -6.171875 1.617188 -6.238281 2.015625 -6.46875 C 2.273438 -6.644531 2.535156 -6.820312 2.796875 -7 C 3.109375 -7.21875 3.414062 -7.414062 3.71875 -7.59375 C 4.164062 -7.875 4.628906 -8.113281 5.109375 -8.3125 C 5.335938 -8.40625 5.570312 -8.472656 5.8125 -8.515625 C 6.0625 -8.566406 6.296875 -8.515625 6.515625 -8.359375 C 6.671875 -8.222656 6.738281 -8.070312 6.71875 -7.90625 C 6.695312 -7.738281 6.648438 -7.578125 6.578125 -7.421875 C 6.453125 -7.128906 6.398438 -6.941406 6.421875 -6.859375 C 6.441406 -6.773438 6.507812 -6.757812 6.625 -6.8125 C 6.75 -6.863281 6.957031 -6.976562 7.25 -7.15625 C 7.539062 -7.332031 7.859375 -7.53125 8.203125 -7.75 C 8.628906 -8.019531 9.078125 -8.28125 9.546875 -8.53125 C 9.941406 -8.789062 10.363281 -8.945312 10.8125 -9 C 11.425781 -9.039062 11.675781 -8.789062 11.5625 -8.25 C 11.457031 -7.71875 11.242188 -7.078125 10.921875 -6.328125 C 10.597656 -5.585938 10.5625 -5.128906 10.8125 -4.953125 C 11.070312 -4.785156 11.640625 -5.015625 12.515625 -5.640625 C 13.390625 -6.273438 13.882812 -6.632812 14 -6.71875 Z M 14 -6.71875 "/></g></g></g><g fill="#000000" fill-opacity="1"><g transform="translate(273.207471, 210.569151)"><g><path d="M 10.671875 -7.03125 C 10.472656 -6.945312 10.265625 -6.878906 10.046875 -6.828125 C 9.992188 -6.804688 9.945312 -6.785156 9.90625 -6.765625 C 9.6875 -6.679688 9.46875 -6.601562 9.25 -6.53125 C 8.644531 -6.34375 8.023438 -6.132812 7.390625 -5.90625 C 6.921875 -5.769531 6.550781 -5.476562 6.28125 -5.03125 C 5.84375 -4.320312 5.296875 -3.769531 4.640625 -3.375 C 3.984375 -2.976562 3.316406 -2.695312 2.640625 -2.53125 C 1.960938 -2.375 1.359375 -2.273438 0.828125 -2.234375 C 0.304688 -2.191406 -0.0234375 -2.179688 -0.171875 -2.203125 C -0.191406 -2.203125 -0.210938 -2.203125 -0.234375 -2.203125 C -0.453125 -2.066406 -0.664062 -1.800781 -0.875 -1.40625 C -1.09375 -1.007812 -1.285156 -0.65625 -1.453125 -0.34375 C -1.484375 -0.269531 -1.507812 -0.203125 -1.53125 -0.140625 C -2.414062 1.628906 -3.289062 3.398438 -4.15625 5.171875 C -4.644531 6.148438 -5.132812 7.132812 -5.625 8.125 C -5.789062 8.46875 -5.976562 8.800781 -6.1875 9.125 C -6.382812 9.375 -6.628906 9.421875 -6.921875 9.265625 C -7.117188 9.128906 -7.171875 8.9375 -7.078125 8.6875 C -6.972656 8.425781 -6.863281 8.164062 -6.75 7.90625 C -5.21875 4.269531 -3.585938 0.675781 -1.859375 -2.875 C -1.328125 -3.976562 -0.820312 -5.101562 -0.34375 -6.25 C -0.132812 -6.769531 0.0859375 -7.304688 0.328125 -7.859375 C 0.335938 -7.910156 0.367188 -7.96875 0.421875 -8.03125 C 0.535156 -8.332031 0.671875 -8.617188 0.828125 -8.890625 C 0.898438 -8.992188 1.035156 -9.054688 1.234375 -9.078125 C 1.429688 -9.109375 1.597656 -9.082031 1.734375 -9 C 1.921875 -8.882812 2.015625 -8.710938 2.015625 -8.484375 C 2.015625 -8.367188 1.988281 -8.25 1.9375 -8.125 C 1.90625 -8.019531 1.882812 -7.914062 1.875 -7.8125 C 1.863281 -7.71875 1.894531 -7.625 1.96875 -7.53125 C 2.113281 -7.507812 2.238281 -7.523438 2.34375 -7.578125 C 2.445312 -7.640625 2.550781 -7.710938 2.65625 -7.796875 C 2.75 -7.878906 2.863281 -7.9375 3 -7.96875 C 3.082031 -8.007812 3.160156 -8.050781 3.234375 -8.09375 C 3.671875 -8.289062 4.097656 -8.457031 4.515625 -8.59375 C 5.054688 -8.769531 5.597656 -8.734375 6.140625 -8.484375 C 6.367188 -8.335938 6.539062 -8.160156 6.65625 -7.953125 C 6.769531 -7.753906 6.859375 -7.535156 6.921875 -7.296875 C 6.984375 -7.117188 7.144531 -7.023438 7.40625 -7.015625 C 7.675781 -7.003906 7.972656 -7.035156 8.296875 -7.109375 C 8.617188 -7.191406 8.914062 -7.273438 9.1875 -7.359375 C 9.414062 -7.421875 9.578125 -7.457031 9.671875 -7.46875 C 9.941406 -7.53125 10.210938 -7.550781 10.484375 -7.53125 C 10.566406 -7.53125 10.640625 -7.515625 10.703125 -7.484375 C 10.773438 -7.460938 10.8125 -7.394531 10.8125 -7.28125 C 10.8125 -7.226562 10.796875 -7.175781 10.765625 -7.125 C 10.742188 -7.082031 10.710938 -7.050781 10.671875 -7.03125 Z M 5.03125 -6.15625 C 5.21875 -6.269531 5.328125 -6.457031 5.359375 -6.71875 C 5.398438 -6.988281 5.375 -7.25 5.28125 -7.5 C 5.238281 -7.582031 5.175781 -7.640625 5.09375 -7.671875 C 5.019531 -7.703125 4.941406 -7.71875 4.859375 -7.71875 C 4.703125 -7.6875 4.546875 -7.632812 4.390625 -7.5625 C 2.742188 -6.738281 1.410156 -5.5625 0.390625 -4.03125 C 0.191406 -3.675781 0.210938 -3.519531 0.453125 -3.5625 C 0.703125 -3.601562 1.070312 -3.753906 1.5625 -4.015625 C 2.050781 -4.273438 2.5625 -4.578125 3.09375 -4.921875 C 3.625 -5.265625 4.078125 -5.554688 4.453125 -5.796875 C 4.785156 -6.015625 4.976562 -6.132812 5.03125 -6.15625 Z M 5.03125 -6.15625 "/></g></g></g><g fill="#000000" fill-opacity="1"><g transform="translate(287.19524, 210.569151)"><g><path d="M 9.71875 -6.8125 C 9.925781 -6.695312 9.941406 -6.410156 9.765625 -5.953125 C 9.503906 -5.609375 9.226562 -5.289062 8.9375 -5 C 8.644531 -4.707031 8.320312 -4.441406 7.96875 -4.203125 C 7.945312 -4.203125 7.9375 -4.195312 7.9375 -4.1875 C 7.695312 -4.019531 7.445312 -3.878906 7.1875 -3.765625 C 5.0625 -2.992188 3.972656 -3.445312 3.921875 -5.125 C 3.054688 -4.375 2.476562 -3.910156 2.1875 -3.734375 C 1.476562 -3.316406 0.710938 -3.128906 -0.109375 -3.171875 C -0.710938 -3.210938 -1.125 -3.398438 -1.34375 -3.734375 C -1.5625 -4.066406 -1.539062 -4.519531 -1.28125 -5.09375 C -0.894531 -5.988281 -0.335938 -6.789062 0.390625 -7.5 C 1.234375 -8.289062 2.175781 -8.921875 3.21875 -9.390625 C 3.769531 -9.671875 4.347656 -9.78125 4.953125 -9.71875 C 5.566406 -9.675781 5.9375 -9.332031 6.0625 -8.6875 C 6.113281 -8.488281 6.0625 -8.3125 5.90625 -8.15625 C 5.707031 -7.976562 5.476562 -7.9375 5.21875 -8.03125 C 5.207031 -8.03125 5.1875 -8.035156 5.15625 -8.046875 C 5.125 -8.054688 5.097656 -8.070312 5.078125 -8.09375 C 4.816406 -8.445312 4.554688 -8.59375 4.296875 -8.53125 C 4.035156 -8.476562 3.753906 -8.363281 3.453125 -8.1875 C 2.078125 -7.382812 1.054688 -6.265625 0.390625 -4.828125 C 0.347656 -4.765625 0.320312 -4.691406 0.3125 -4.609375 C 0.3125 -4.535156 0.335938 -4.476562 0.390625 -4.4375 C 0.546875 -4.382812 0.722656 -4.394531 0.921875 -4.46875 C 1.117188 -4.539062 1.316406 -4.648438 1.515625 -4.796875 C 1.710938 -4.953125 1.878906 -5.078125 2.015625 -5.171875 C 2.023438 -5.203125 2.03125 -5.21875 2.03125 -5.21875 C 2.6875 -5.757812 3.328125 -6.316406 3.953125 -6.890625 C 4.234375 -7.179688 4.578125 -7.34375 4.984375 -7.375 C 5.578125 -7.375 5.820312 -7.113281 5.71875 -6.59375 C 5.664062 -6.394531 5.609375 -6.195312 5.546875 -6 C 5.316406 -5.15625 5.304688 -4.65625 5.515625 -4.5 C 5.734375 -4.351562 6.0625 -4.351562 6.5 -4.5 C 6.945312 -4.65625 7.390625 -4.9375 7.828125 -5.34375 C 8.273438 -5.757812 8.648438 -6.140625 8.953125 -6.484375 C 9.253906 -6.828125 9.507812 -6.9375 9.71875 -6.8125 Z M 9.71875 -6.8125 "/></g></g></g><g fill="#000000" fill-opacity="1"><g transform="translate(300.191745, 210.569151)"><g><path d="M 6.484375 -6.390625 C 6.773438 -6.679688 7.019531 -6.84375 7.21875 -6.875 C 7.414062 -6.914062 7.539062 -6.882812 7.59375 -6.78125 C 7.65625 -6.6875 7.617188 -6.554688 7.484375 -6.390625 C 6.703125 -5.441406 5.820312 -4.625 4.84375 -3.9375 C 3.875 -3.25 2.875 -2.847656 1.84375 -2.734375 C 0.8125 -2.628906 0.1875 -3.195312 -0.03125 -4.4375 C -0.1875 -5.65625 0.550781 -8.144531 2.1875 -11.90625 C 3.832031 -15.664062 5.132812 -18.75 6.09375 -21.15625 C 6.175781 -21.363281 6.296875 -21.550781 6.453125 -21.71875 C 6.671875 -21.925781 6.925781 -21.972656 7.21875 -21.859375 C 7.320312 -21.816406 7.421875 -21.742188 7.515625 -21.640625 C 7.609375 -21.546875 7.640625 -21.375 7.609375 -21.125 C 3.378906 -11.101562 1.332031 -5.65625 1.46875 -4.78125 C 1.601562 -3.90625 2.164062 -3.6875 3.15625 -4.125 C 4.15625 -4.570312 4.925781 -5.023438 5.46875 -5.484375 C 6.007812 -5.941406 6.347656 -6.242188 6.484375 -6.390625 Z M 6.484375 -6.390625 "/></g></g></g><g fill="#000000" fill-opacity="1"><g transform="translate(310.991419, 210.569151)"><g/></g></g><g fill="#000000" fill-opacity="1"><g transform="translate(325.233682, 210.569151)"><g><path d="M 6.515625 -5.828125 L 5.421875 -5.859375 C 4.328125 -5.890625 3.128906 -5.976562 1.828125 -6.125 C 1.804688 -6.125 1.785156 -6.140625 1.765625 -6.171875 C 1.734375 -6.171875 1.703125 -6.1875 1.671875 -6.21875 C 1.648438 -6.25 1.648438 -6.316406 1.671875 -6.421875 C 1.773438 -6.828125 1.921875 -7.039062 2.109375 -7.0625 C 3.160156 -7.207031 4.195312 -7.285156 5.21875 -7.296875 L 5.84375 -7.328125 L 9.96875 -7.328125 C 10.195312 -7.328125 10.421875 -7.3125 10.640625 -7.28125 C 10.796875 -7.226562 10.816406 -7 10.703125 -6.59375 C 10.578125 -6.175781 10.429688 -5.945312 10.265625 -5.90625 C 10.179688 -5.882812 10.097656 -5.875 10.015625 -5.875 L 9.375 -5.875 C 8.46875 -5.84375 7.515625 -5.828125 6.515625 -5.828125 Z M 6.515625 -5.828125 "/></g></g></g></svg>